<svg xmlns="http://www.w3.org/2000/svg" xmlns:xlink="http://www.w3.org/1999/xlink" contentStyleType="text/css" data-diagram-type="DESCRIPTION" height="361px" preserveAspectRatio="none" style="width:1420px;height:361px;background:#FFFFFF;" version="1.1" viewBox="0 0 1420 361" width="1420px" zoomAndPan="magnify"><?plantuml 1.2026.5?><defs/><g><!--cluster M.I.A System--><g class="cluster" data-qualified-name="M.I.A System" data-source-line="32" id="ent0002"><rect fill="#E6F0FF" height="218.88" rx="2.5" ry="2.5" style="stroke:#003366;stroke-width:1;" width="1081" x="7" y="128.99"/><text fill="#000000" font-family="sans-serif" font-size="14" font-weight="700" lengthAdjust="spacing" textLength="90.7197" x="502.1401" y="144.5252">M.I.A System</text></g><!--entity UC_CREATE_USERS--><g class="entity" data-qualified-name="M.I.A System.UC_CREATE_USERS" data-source-line="33" id="ent0003"><ellipse cx="288.9953" cy="183.3171" fill="#D0E8F2" rx="62.5353" ry="14.9071" style="stroke:#0066CC;stroke-width:0.5;"/><text fill="#000000" font-family="sans-serif" font-size="14" lengthAdjust="spacing" textLength="85.9141" x="246.0383" y="188.0612">Create Users</text></g><!--entity UC_UPDATE_USERS--><g class="entity" data-qualified-name="M.I.A System.UC_UPDATE_USERS" data-source-line="34" id="ent0004"><ellipse cx="459.9956" cy="183.3211" fill="#D0E8F2" rx="73.2556" ry="17.0511" style="stroke:#0066CC;stroke-width:0.5;"/><text fill="#000000" font-family="sans-serif" font-size="14" lengthAdjust="spacing" textLength="113.7842" x="403.1036" y="188.0653">Update User Info</text></g><!--entity UC_DELETE_USERS--><g class="entity" data-qualified-name="M.I.A System.UC_DELETE_USERS" data-source-line="35" id="ent0005"><ellipse cx="630.0025" cy="183.3185" fill="#D0E8F2" rx="62.2425" ry="14.8485" style="stroke:#0066CC;stroke-width:0.5;"/><text fill="#000000" font-family="sans-serif" font-size="14" lengthAdjust="spacing" textLength="85.1006" x="587.4522" y="188.0626">Delete Users</text></g><!--entity UC_ASSIGN_ROLES--><g class="entity" data-qualified-name="M.I.A System.UC_ASSIGN_ROLES" data-source-line="36" id="ent0006"><ellipse cx="662.0012" cy="310.0822" fill="#D0E8F2" rx="62.6612" ry="14.9322" style="stroke:#0066CC;stroke-width:0.5;"/><text fill="#000000" font-family="sans-serif" font-size="14" lengthAdjust="spacing" textLength="86.2627" x="618.8699" y="314.8264">Assign Roles</text></g><!--entity UC_VIEW_REPORTS--><g class="entity" data-qualified-name="M.I.A System.UC_VIEW_REPORTS" data-source-line="37" id="ent0007"><ellipse cx="811.9972" cy="183.3154" fill="#D0E8F2" rx="84.6272" ry="19.3254" style="stroke:#0066CC;stroke-width:0.5;"/><text fill="#000000" font-family="sans-serif" font-size="14" lengthAdjust="spacing" textLength="140.9092" x="741.5426" y="188.0596">View System Reports</text></g><!--entity UC_MANAGE_FEES--><g class="entity" data-qualified-name="M.I.A System.UC_MANAGE_FEES" data-source-line="38" id="ent0008"><ellipse cx="106.9951" cy="183.317" fill="#D0E8F2" rx="84.2351" ry="19.247" style="stroke:#0066CC;stroke-width:0.5;"/><text fill="#000000" font-family="sans-serif" font-size="14" lengthAdjust="spacing" textLength="140" x="36.9951" y="188.0612">Manage Tuition Fees</text></g><!--entity UC_PAYMENT_PLANS--><g class="entity" data-qualified-name="M.I.A System.UC_PAYMENT_PLANS" data-source-line="39" id="ent0009"><ellipse cx="294.0011" cy="310.0842" fill="#D0E8F2" rx="96.9711" ry="21.7942" style="stroke:#0066CC;stroke-width:0.5;"/><text fill="#000000" font-family="sans-serif" font-size="14" lengthAdjust="spacing" textLength="168.8955" x="209.5534" y="314.8284">Configure Payment Plans</text></g><!--entity UC_TRACK_PAYMENTS--><g class="entity" data-qualified-name="M.I.A System.UC_TRACK_PAYMENTS" data-source-line="40" id="ent0010"><ellipse cx="1002.0035" cy="183.3227" fill="#D0E8F2" rx="70.4635" ry="16.4927" style="stroke:#0066CC;stroke-width:0.5;"/><text fill="#000000" font-family="sans-serif" font-size="14" lengthAdjust="spacing" textLength="106.8115" x="948.5977" y="188.0668">Track Payments</text></g><!--entity ADMIN--><g class="entity" data-qualified-name="ADMIN" data-source-line="30" id="ent0001"><ellipse cx="744.0004" cy="14" fill="#ADD8E6" rx="8" ry="8" style="stroke:#003366;stroke-width:0.5;"/><path d="M744.0004,22 L744.0004,49 M731.0004,30 L757.0004,30 M744.0004,49 L731.0004,64 M744.0004,49 L757.0004,64" fill="none" style="stroke:#003366;stroke-width:0.5;"/><text fill="#000000" font-family="sans-serif" font-size="14" lengthAdjust="spacing" textLength="93.7207" x="697.14" y="79.0352">Administrator</text></g><g class="entity" data-qualified-name="GMN21" data-source-line="56" id="ent0022"><path d="M1107.81,155.35 L1107.81,211.2816 L1282.1948,211.2816 L1282.1948,165.35 L1272.1948,155.35 L1107.81,155.35" fill="#F5F5F5" style="stroke:#666666;stroke-width:0.5;"/><path d="M1272.1948,155.35 L1272.1948,165.35 L1282.1948,165.35 L1272.1948,155.35" fill="#F5F5F5" style="stroke:#666666;stroke-width:1;"/><text fill="#333333" font-family="sans-serif" font-size="13" lengthAdjust="spacing" textLength="138.6011" x="1113.81" y="172.9184">Beyond original scope</text><text fill="#333333" font-family="sans-serif" font-size="13" lengthAdjust="spacing" textLength="114.6577" x="1113.81" y="188.2289">Set fees per major</text><text fill="#333333" font-family="sans-serif" font-size="13" lengthAdjust="spacing" textLength="153.3848" x="1113.81" y="203.5395">Auto-assign to students</text></g><!--link ADMIN to UC_CREATE_USERS--><g class="link" data-entity-1="ent0001" data-entity-2="ent0003" data-link-type="dependency" data-source-line="43" id="lnk11"><path d="M696.9,47.52 C623.73,53.29 479.65,70.61 369,120.99 C343.2,132.74 321.6582,150.7502 306.6382,164.9102" fill="none" id="ADMIN-to-UC_CREATE_USERS" style="stroke:#181818;stroke-width:1;"/><polygon fill="#181818" points="303,168.34,312.2926,165.0768,306.6382,164.9102,306.8048,159.2558,303,168.34" style="stroke:#181818;stroke-width:1;stroke-linejoin:miter;stroke-miterlimit:10;"/></g><!--link ADMIN to UC_UPDATE_USERS--><g class="link" data-entity-1="ent0001" data-entity-2="ent0004" data-link-type="dependency" data-source-line="44" id="lnk12"><path d="M696.84,59.95 C656.74,73.66 598.15,95.54 550,120.99 C524.76,134.33 501.98,150.27 484.26,163.56" fill="none" id="ADMIN-to-UC_UPDATE_USERS" style="stroke:#181818;stroke-width:1;"/><polygon fill="#181818" points="480.26,166.56,489.86,164.36,484.26,163.56,485.06,157.96,480.26,166.56" style="stroke:#181818;stroke-width:1;stroke-linejoin:miter;stroke-miterlimit:10;"/></g><!--link ADMIN to UC_DELETE_USERS--><g class="link" data-entity-1="ent0001" data-entity-2="ent0005" data-link-type="dependency" data-source-line="45" id="lnk13"><path d="M712.85,82.34 C689.25,110.82 661.3411,144.5007 644.7611,164.5007" fill="none" id="ADMIN-to-UC_DELETE_USERS" style="stroke:#181818;stroke-width:1;"/><polygon fill="#181818" points="641.57,168.35,650.3934,163.9741,644.7611,164.5007,644.2345,158.8684,641.57,168.35" style="stroke:#181818;stroke-width:1;stroke-linejoin:miter;stroke-miterlimit:10;"/></g><!--link ADMIN to UC_ASSIGN_ROLES--><g class="link" data-entity-1="ent0001" data-entity-2="ent0006" data-link-type="dependency" data-source-line="46" id="lnk14"><path d="M790.97,46.33 C928.51,51.43 1323.05,69.68 1361,111.99 C1404.41,160.39 1405.28,210.67 1361,258.28 C1318.17,304.34 893.6,309.1257 729.9,309.2657" fill="none" id="ADMIN-to-UC_ASSIGN_ROLES" style="stroke:#181818;stroke-width:1;"/><polygon fill="#181818" points="724.9,309.27,733.9,313.27,729.9,309.27,733.9,305.27,724.9,309.27" style="stroke:#181818;stroke-width:1;stroke-linejoin:miter;stroke-miterlimit:10;"/></g><!--link ADMIN to UC_VIEW_REPORTS--><g class="link" data-entity-1="ent0001" data-entity-2="ent0007" data-link-type="dependency" data-source-line="47" id="lnk15"><path d="M762.58,82.34 C775.64,108.75 790.3247,138.4676 800.5947,159.2476" fill="none" id="ADMIN-to-UC_VIEW_REPORTS" style="stroke:#181818;stroke-width:1;"/><polygon fill="#181818" points="802.81,163.73,802.4083,153.8893,800.5947,159.2476,795.2364,157.4339,802.81,163.73" style="stroke:#181818;stroke-width:1;stroke-linejoin:miter;stroke-miterlimit:10;"/></g><!--link ADMIN to UC_MANAGE_FEES--><g class="link" data-entity-1="ent0001" data-entity-2="ent0008" data-link-type="dependency" data-source-line="48" id="lnk16"><path d="M696.71,45.24 C601.57,47.56 381.39,59.73 209,120.99 C179.99,131.3 154.2707,147.4767 134.4307,161.6267" fill="none" id="ADMIN-to-UC_MANAGE_FEES" style="stroke:#181818;stroke-width:1;"/><polygon fill="#181818" points="130.36,164.53,140.01,162.5607,134.4307,161.6267,135.3647,156.0475,130.36,164.53" style="stroke:#181818;stroke-width:1;stroke-linejoin:miter;stroke-miterlimit:10;"/></g><!--link ADMIN to UC_PAYMENT_PLANS--><g class="link" data-entity-1="ent0001" data-entity-2="ent0009" data-link-type="dependency" data-source-line="49" id="lnk17"><path d="M791.34,47.72 C919.63,56.28 1266.66,82.76 1300,120.99 C1326.38,151.23 1326.97,181.56 1300,211.28 C1284.65,228.19 633.544,281.9102 389.324,301.5002" fill="none" id="ADMIN-to-UC_PAYMENT_PLANS" style="stroke:#181818;stroke-width:1;"/><polygon fill="#181818" points="384.34,301.9,393.631,305.1676,389.324,301.5002,392.9914,297.1932,384.34,301.9" style="stroke:#181818;stroke-width:1;stroke-linejoin:miter;stroke-miterlimit:10;"/></g><!--link ADMIN to UC_TRACK_PAYMENTS--><g class="link" data-entity-1="ent0001" data-entity-2="ent0010" data-link-type="dependency" data-source-line="50" id="lnk18"><path d="M791.33,63.18 C826.1,77.38 874.03,98.36 914,120.99 C938.63,134.93 961.0508,150.9257 978.4408,164.0657" fill="none" id="ADMIN-to-UC_TRACK_PAYMENTS" style="stroke:#181818;stroke-width:1;"/><polygon fill="#181818" points="982.43,167.08,977.6608,158.4629,978.4408,164.0657,972.8379,164.8457,982.43,167.08" style="stroke:#181818;stroke-width:1;stroke-linejoin:miter;stroke-miterlimit:10;"/></g><!--link UC_CREATE_USERS to UC_ASSIGN_ROLES--><g class="link" data-entity-1="ent0003" data-entity-2="ent0006" data-link-type="extension" data-source-line="52" id="lnk19"><path d="M323.64,196.02 C337.72,200.77 354.13,206.29 369,211.28 C462.04,242.49 554.7118,273.3635 609.7318,291.6835" fill="none" id="UC_CREATE_USERS-to-UC_ASSIGN_ROLES" style="stroke:#181818;stroke-width:1;stroke-dasharray:7,7;"/><polygon fill="none" points="626.81,297.37,611.6273,285.9908,607.8363,297.3762,626.81,297.37" style="stroke:#181818;stroke-width:1;stroke-linejoin:miter;stroke-miterlimit:10;"/><text fill="#000000" font-family="sans-serif" font-size="13" lengthAdjust="spacing" textLength="51.7588" x="506.41" y="254.8484">requires</text></g><!--link UC_MANAGE_FEES to UC_PAYMENT_PLANS--><g class="link" data-entity-1="ent0008" data-entity-2="ent0009" data-link-type="extension" data-source-line="53" id="lnk20"><path d="M133.4,201.93 C167.83,224.9 212.9463,255.0006 249.0563,279.0906" fill="none" id="UC_MANAGE_FEES-to-UC_PAYMENT_PLANS" style="stroke:#181818;stroke-width:1;stroke-dasharray:7,7;"/><polygon fill="none" points="264.03,289.08,252.3861,274.0994,245.7265,284.0819,264.03,289.08" style="stroke:#181818;stroke-width:1;stroke-linejoin:miter;stroke-miterlimit:10;"/><text fill="#000000" font-family="sans-serif" font-size="13" lengthAdjust="spacing" textLength="52.3618" x="218.25" y="254.8484">includes</text></g><!--link UC_MANAGE_FEES to GMN21--><g class="link" data-entity-1="ent0008" data-entity-2="ent0022" data-link-type="association" data-source-line="56" id="lnk23"><path d="M126.54,164.3 C148.68,144.2 186.87,113.76 226.5,101.49 C271.29,87.62 1025.58,88.05 1070.5,101.49 C1105.44,111.94 1139.66,135.7 1163.35,154.94" fill="none" id="UC_MANAGE_FEES-GMN21" style="stroke:#181818;stroke-width:1;stroke-dasharray:7,7;"/></g><?plantuml-src dLFHRfim57ttLzmcpucYHaFL7YQvOAfe8K50ElK9MU0mhyJERACfslRlSqYWCMaqgUQ9Uywvn_TSk2lPbWi6sC_MIUwlb-i4nZW87eY7xivO-f9c9Ef0ueMpCEp1JKfyd98E3MRa8Rn7IBzoiQUAxe0MHYhuZS2UHrgyLaeselHbRQiNhYTSgfAf4pQUpUPppslheHIchyxGtyl-YXM6YgfcDpmkR_zXaqQpWkfR5au6xtbudk__rqD8SyjW77uwFjUjlVOCMy_RS-n-2d-4onqNN1j5xUi8g0OSH8iLGc_XZQBfOeeXFMZ3TgFpFRgnHxvYrDvkevdIhNxZvtv2S4PoEtoIkkpDlkpOi11RsIasSN134R2Q3Vi7P4dUPsEjUIKWaJNhsJXD5q-hF5aloO3zpDclyroGiBrKfXSzByYtF27nEia6eeWAMZ786cwu512oDwS8h_0JoKCoDFAbsFAgKGnYUjWnOI2kgUXrCNw9o2hBuoLU3PIPiWllLBqWIx3_jPEbntMsMuF9vCjL_WxYvEmWJgOEukJd84v83dAPX0EuephGO2Wq60IcqpzNzu7FzY__sN35D79jUxhZQFbS57LJMZvgVol5g-y6vFPwVu_i84K9qZAue3NeGkwPhQVCmDPk7VRs8zxH7rBP8cwCdD3JrsSaQ6CjxC8GinsEFkWV?></g></svg>