<svg xmlns="http://www.w3.org/2000/svg" xmlns:xlink="http://www.w3.org/1999/xlink" contentStyleType="text/css" data-diagram-type="DESCRIPTION" height="381px" preserveAspectRatio="none" style="width:2686px;height:381px;background:#FFFFFF;" version="1.1" viewBox="0 0 2686 381" width="2686px" zoomAndPan="magnify"><?plantuml 1.2026.5?><defs/><g><!--cluster M.I.A System--><g class="cluster" data-qualified-name="M.I.A System" data-source-line="33" id="ent0002"><rect fill="#E6F0FF" height="237.14" rx="2.5" ry="2.5" style="stroke:#003366;stroke-width:1;" width="1349" x="825" y="128.99"/><text fill="#000000" font-family="sans-serif" font-size="14" font-weight="700" lengthAdjust="spacing" textLength="90.7197" x="1454.1401" y="144.5252">M.I.A System</text></g><!--cluster M.I.A AI Agent--><g class="cluster" data-qualified-name="M.I.A AI Agent" data-source-line="44" id="ent0011"><rect fill="#E6F0FF" height="92.27" rx="2.5" ry="2.5" style="stroke:#003366;stroke-width:1;" width="794" x="7" y="275.14"/><text fill="#000000" font-family="sans-serif" font-size="14" font-weight="700" lengthAdjust="spacing" textLength="101.3701" x="353.3149" y="290.6752">M.I.A AI Agent</text></g><!--entity UC_VIEW_COURSES--><g class="entity" data-qualified-name="M.I.A System.UC_VIEW_COURSES" data-source-line="34" id="ent0003"><ellipse cx="1279.0023" cy="184.1705" fill="#D0E8F2" rx="88.9023" ry="20.1805" style="stroke:#0066CC;stroke-width:0.5;"/><text fill="#000000" font-family="sans-serif" font-size="14" lengthAdjust="spacing" textLength="150.7324" x="1203.6361" y="188.9146">View Enrolled Courses</text></g><!--entity UC_CHECK_GRADES--><g class="entity" data-qualified-name="M.I.A System.UC_CHECK_GRADES" data-source-line="35" id="ent0004"><ellipse cx="1487.0049" cy="184.167" fill="#D0E8F2" rx="83.9849" ry="19.197" style="stroke:#0066CC;stroke-width:0.5;"/><text fill="#000000" font-family="sans-serif" font-size="14" lengthAdjust="spacing" textLength="139.4189" x="1417.2954" y="188.9111">Check Grades &amp; GPA</text></g><!--entity UC_VIEW_ATTEND--><g class="entity" data-qualified-name="M.I.A System.UC_VIEW_ATTEND" data-source-line="36" id="ent0005"><ellipse cx="1679.0043" cy="184.1709" fill="#D0E8F2" rx="72.9543" ry="16.9909" style="stroke:#0066CC;stroke-width:0.5;"/><text fill="#000000" font-family="sans-serif" font-size="14" lengthAdjust="spacing" textLength="113.0391" x="1622.4848" y="188.915">View Attendance</text></g><!--entity UC_TRANSCRIPT--><g class="entity" data-qualified-name="M.I.A System.UC_TRANSCRIPT" data-source-line="37" id="ent0006"><ellipse cx="1926.0013" cy="330.7703" fill="#D0E8F2" rx="84.8013" ry="19.3603" style="stroke:#0066CC;stroke-width:0.5;"/><text fill="#000000" font-family="sans-serif" font-size="14" lengthAdjust="spacing" textLength="141.3125" x="1855.345" y="335.5144">Download Transcript</text></g><!--entity UC_SUBMIT_ASSIGN--><g class="entity" data-qualified-name="M.I.A System.UC_SUBMIT_ASSIGN" data-source-line="38" id="ent0007"><ellipse cx="1871.0002" cy="184.174" fill="#D0E8F2" rx="83.8702" ry="19.174" style="stroke:#0066CC;stroke-width:0.5;"/><text fill="#000000" font-family="sans-serif" font-size="14" lengthAdjust="spacing" textLength="139.1523" x="1801.424" y="188.9182">Submit Assignments</text></g><!--entity UC_VIEW_TUITION--><g class="entity" data-qualified-name="M.I.A System.UC_VIEW_TUITION" data-source-line="39" id="ent0008"><ellipse cx="2073.9969" cy="184.1694" fill="#D0E8F2" rx="84.2469" ry="19.2494" style="stroke:#0066CC;stroke-width:0.5;"/><text fill="#000000" font-family="sans-serif" font-size="14" lengthAdjust="spacing" textLength="140.0273" x="2003.9832" y="188.9135">View Tuition Balance</text></g><!--entity UC_TRACK_PAYMENTS--><g class="entity" data-qualified-name="M.I.A System.UC_TRACK_PAYMENTS" data-source-line="40" id="ent0009"><ellipse cx="1085.0035" cy="184.1727" fill="#D0E8F2" rx="70.4635" ry="16.4927" style="stroke:#0066CC;stroke-width:0.5;"/><text fill="#000000" font-family="sans-serif" font-size="14" lengthAdjust="spacing" textLength="106.8115" x="1031.5977" y="188.9168">Track Payments</text></g><!--entity UC_CHAT_MIA--><g class="entity" data-qualified-name="M.I.A System.UC_CHAT_MIA" data-source-line="41" id="ent0010"><ellipse cx="909.9984" cy="184.1677" fill="#D0E8F2" rx="69.1884" ry="16.2377" style="stroke:#0066CC;stroke-width:0.5;"/><text fill="#000000" font-family="sans-serif" font-size="14" lengthAdjust="spacing" textLength="103.5713" x="858.2127" y="188.9118">Chat with M.I.A</text></g><!--entity UC_ANSWER_Q--><g class="entity" data-qualified-name="M.I.A AI Agent.UC_ANSWER_Q" data-source-line="45" id="ent0012"><ellipse cx="100.0034" cy="330.7707" fill="#D0E8F2" rx="76.8034" ry="17.7607" style="stroke:#0066CC;stroke-width:0.5;"/><text fill="#000000" font-family="sans-serif" font-size="14" lengthAdjust="spacing" textLength="122.4385" x="38.7842" y="335.5148">Answer Questions</text></g><!--entity UC_RECOMMEND--><g class="entity" data-qualified-name="M.I.A AI Agent.UC_RECOMMEND" data-source-line="46" id="ent0013"><ellipse cx="515.0012" cy="330.7722" fill="#D0E8F2" rx="85.5612" ry="19.5122" style="stroke:#0066CC;stroke-width:0.5;"/><text fill="#000000" font-family="sans-serif" font-size="14" lengthAdjust="spacing" textLength="143.0693" x="443.4666" y="335.5164">Recommend Courses</text></g><!--entity UC_TRACK_GRAD--><g class="entity" data-qualified-name="M.I.A AI Agent.UC_TRACK_GRAD" data-source-line="47" id="ent0014"><ellipse cx="709.9984" cy="330.7717" fill="#D0E8F2" rx="74.7584" ry="17.3517" style="stroke:#0066CC;stroke-width:0.5;"/><text fill="#000000" font-family="sans-serif" font-size="14" lengthAdjust="spacing" textLength="117.4756" x="651.2607" y="335.5158">Track Graduation</text></g><!--entity UC_MEMORY--><g class="entity" data-qualified-name="M.I.A AI Agent.UC_MEMORY" data-source-line="48" id="ent0015"><ellipse cx="302.9981" cy="330.7656" fill="#D0E8F2" rx="91.1781" ry="20.6356" style="stroke:#0066CC;stroke-width:0.5;"/><text fill="#000000" font-family="sans-serif" font-size="14" lengthAdjust="spacing" textLength="155.9004" x="225.0479" y="335.5098">Remember Preferences</text></g><!--entity STU--><g class="entity" data-qualified-name="STU" data-source-line="31" id="ent0001"><ellipse cx="1607.0005" cy="14" fill="#ADD8E6" rx="8" ry="8" style="stroke:#003366;stroke-width:0.5;"/><path d="M1607.0005,22 L1607.0005,49 M1594.0005,30 L1620.0005,30 M1607.0005,49 L1594.0005,64 M1607.0005,49 L1620.0005,64" fill="none" style="stroke:#003366;stroke-width:0.5;"/><text fill="#000000" font-family="sans-serif" font-size="14" lengthAdjust="spacing" textLength="52.001" x="1581" y="79.0352">Student</text></g><g class="entity" data-qualified-name="GMN31" data-source-line="70" id="ent0032"><path d="M2193.09,156.21 L2193.09,212.1416 L2406.9064,212.1416 L2406.9064,166.21 L2396.9064,156.21 L2193.09,156.21" fill="#F5F5F5" style="stroke:#666666;stroke-width:0.5;"/><path d="M2396.9064,156.21 L2396.9064,166.21 L2406.9064,166.21 L2396.9064,156.21" fill="#F5F5F5" style="stroke:#666666;stroke-width:1;"/><text fill="#333333" font-family="sans-serif" font-size="13" lengthAdjust="spacing" textLength="167.6226" x="2199.09" y="173.7784">Exclusive to Student Portal</text><text fill="#333333" font-family="sans-serif" font-size="13" lengthAdjust="spacing" textLength="187.605" x="2199.09" y="189.0889">Powered by Groq/Gemini LLM</text><text fill="#333333" font-family="sans-serif" font-size="13" lengthAdjust="spacing" textLength="192.8164" x="2199.09" y="204.3995">Maintains conversation history</text></g><g class="entity" data-qualified-name="GMN34" data-source-line="76" id="ent0035"><path d="M2441.55,156.21 L2441.55,212.1416 L2626.4592,212.1416 L2626.4592,166.21 L2616.4592,156.21 L2441.55,156.21" fill="#F5F5F5" style="stroke:#666666;stroke-width:0.5;"/><path d="M2616.4592,156.21 L2616.4592,166.21 L2626.4592,166.21 L2616.4592,156.21" fill="#F5F5F5" style="stroke:#666666;stroke-width:1;"/><text fill="#333333" font-family="sans-serif" font-size="13" lengthAdjust="spacing" textLength="163.9092" x="2447.55" y="173.7784">View installment schedule</text><text fill="#333333" font-family="sans-serif" font-size="13" lengthAdjust="spacing" textLength="95.8052" x="2447.55" y="189.0889">Payment status</text><text fill="#333333" font-family="sans-serif" font-size="13" lengthAdjust="spacing" textLength="121.4497" x="2447.55" y="204.3995">Transaction history</text></g><!--link STU to UC_VIEW_COURSES--><g class="link" data-entity-1="ent0001" data-entity-2="ent0003" data-link-type="dependency" data-source-line="51" id="lnk16"><path d="M1580.5,52.07 C1538.36,64.12 1453.9,89.91 1386,120.99 C1358.26,133.69 1332.6019,148.767 1311.4819,162.057" fill="none" id="STU-to-UC_VIEW_COURSES" style="stroke:#181818;stroke-width:1;"/><polygon fill="#181818" points="1307.25,164.72,1316.9977,163.3122,1311.4819,162.057,1312.737,156.5412,1307.25,164.72" style="stroke:#181818;stroke-width:1;stroke-linejoin:miter;stroke-miterlimit:10;"/></g><!--link STU to UC_CHECK_GRADES--><g class="link" data-entity-1="ent0001" data-entity-2="ent0004" data-link-type="dependency" data-source-line="52" id="lnk17"><path d="M1580.67,75.13 C1556.79,102.66 1525.6841,138.5411 1505.9041,161.3711" fill="none" id="STU-to-UC_CHECK_GRADES" style="stroke:#181818;stroke-width:1;"/><polygon fill="#181818" points="1502.63,165.15,1511.5465,160.9672,1505.9041,161.3711,1505.5002,155.7286,1502.63,165.15" style="stroke:#181818;stroke-width:1;stroke-linejoin:miter;stroke-miterlimit:10;"/></g><!--link STU to UC_VIEW_ATTEND--><g class="link" data-entity-1="ent0001" data-entity-2="ent0005" data-link-type="dependency" data-source-line="53" id="lnk18"><path d="M1626.48,82.21 C1640.89,109.91 1657.503,141.8441 1668.253,162.5141" fill="none" id="STU-to-UC_VIEW_ATTEND" style="stroke:#181818;stroke-width:1;"/><polygon fill="#181818" points="1670.56,166.95,1669.9561,157.1197,1668.253,162.5141,1662.8586,160.8109,1670.56,166.95" style="stroke:#181818;stroke-width:1;stroke-linejoin:miter;stroke-miterlimit:10;"/></g><!--link STU to UC_TRANSCRIPT--><g class="link" data-entity-1="ent0001" data-entity-2="ent0006" data-link-type="dependency" data-source-line="54" id="lnk19"><path d="M1633.46,44.6 C1788.34,44 2573.15,44.75 2644,120.99 C2671.57,150.67 2670.23,181.27 2644,212.14 C2563.55,306.84 2187.6489,325.3568 2015.6489,328.9068" fill="none" id="STU-to-UC_TRANSCRIPT" style="stroke:#181818;stroke-width:1;"/><polygon fill="#181818" points="2010.65,329.01,2019.7306,332.8234,2015.6489,328.9068,2019.5655,324.8251,2010.65,329.01" style="stroke:#181818;stroke-width:1;stroke-linejoin:miter;stroke-miterlimit:10;"/></g><!--link STU to UC_SUBMIT_ASSIGN--><g class="link" data-entity-1="ent0001" data-entity-2="ent0007" data-link-type="dependency" data-source-line="55" id="lnk20"><path d="M1633.24,56.05 C1665.64,70.25 1722.19,95.8 1769,120.99 C1795.12,135.05 1819.6631,150.1133 1839.9731,163.0533" fill="none" id="STU-to-UC_SUBMIT_ASSIGN" style="stroke:#181818;stroke-width:1;"/><polygon fill="#181818" points="1844.19,165.74,1838.749,157.5305,1839.9731,163.0533,1834.4503,164.2775,1844.19,165.74" style="stroke:#181818;stroke-width:1;stroke-linejoin:miter;stroke-miterlimit:10;"/></g><!--link STU to UC_VIEW_TUITION--><g class="link" data-entity-1="ent0001" data-entity-2="ent0008" data-link-type="dependency" data-source-line="56" id="lnk21"><path d="M1633.09,47.12 C1694.22,53.33 1850.7,73.01 1972,120.99 C2000.54,132.28 2026.0824,148.4205 2046.0124,162.4605" fill="none" id="STU-to-UC_VIEW_TUITION" style="stroke:#181818;stroke-width:1;"/><polygon fill="#181818" points="2050.1,165.34,2045.046,156.8868,2046.0124,162.4605,2040.4387,163.4269,2050.1,165.34" style="stroke:#181818;stroke-width:1;stroke-linejoin:miter;stroke-miterlimit:10;"/></g><!--link STU to UC_TRACK_PAYMENTS--><g class="link" data-entity-1="ent0001" data-entity-2="ent0009" data-link-type="dependency" data-source-line="57" id="lnk22"><path d="M1580.7,45.4 C1511.32,47.93 1318.66,60.35 1173,120.99 C1145.71,132.35 1122.3801,150.1188 1105.6101,164.5488" fill="none" id="STU-to-UC_TRACK_PAYMENTS" style="stroke:#181818;stroke-width:1;"/><polygon fill="#181818" points="1101.82,167.81,1111.2511,164.9719,1105.6101,164.5488,1106.0331,158.9078,1101.82,167.81" style="stroke:#181818;stroke-width:1;stroke-linejoin:miter;stroke-miterlimit:10;"/></g><!--link STU to UC_CHAT_MIA--><g class="link" data-entity-1="ent0001" data-entity-2="ent0010" data-link-type="dependency" data-source-line="58" id="lnk23"><path d="M1580.69,46.31 C1478.26,52.67 1106.35,78.27 997,120.99 C969.33,131.8 945.9876,150.0576 929.5776,164.7276" fill="none" id="STU-to-UC_CHAT_MIA" style="stroke:#181818;stroke-width:1;"/><polygon fill="#181818" points="925.85,168.06,935.2256,165.0438,929.5776,164.7276,929.8938,159.0796,925.85,168.06" style="stroke:#181818;stroke-width:1;stroke-linejoin:miter;stroke-miterlimit:10;"/></g><!--link UC_CHAT_MIA to UC_ANSWER_Q--><g class="link" data-entity-1="ent0010" data-entity-2="ent0012" data-link-type="dependency" data-source-line="60" id="lnk24"><path d="M843.13,188.81 C688.93,197.84 312.52,223.76 194,267.14 C165.46,277.59 140.8863,295.1696 122.8863,309.9296" fill="none" id="UC_CHAT_MIA-to-UC_ANSWER_Q" style="stroke:#181818;stroke-width:1;"/><polygon fill="#181818" points="119.02,313.1,128.5157,310.4864,122.8863,309.9296,123.4431,304.3002,119.02,313.1" style="stroke:#181818;stroke-width:1;stroke-linejoin:miter;stroke-miterlimit:10;"/></g><!--link UC_CHAT_MIA to UC_RECOMMEND--><g class="link" data-entity-1="ent0010" data-entity-2="ent0013" data-link-type="dependency" data-source-line="61" id="lnk25"><path d="M850.04,192.57 C797.02,200.49 718.31,215.65 654,242.14 C610.21,260.18 568.7702,288.6702 542.2202,308.5802" fill="none" id="UC_CHAT_MIA-to-UC_RECOMMEND" style="stroke:#181818;stroke-width:1;"/><polygon fill="#181818" points="538.22,311.58,547.8201,309.3806,542.2202,308.5802,543.0205,302.9803,538.22,311.58" style="stroke:#181818;stroke-width:1;stroke-linejoin:miter;stroke-miterlimit:10;"/></g><!--link UC_CHAT_MIA to UC_TRACK_GRAD--><g class="link" data-entity-1="ent0010" data-entity-2="ent0014" data-link-type="dependency" data-source-line="62" id="lnk26"><path d="M889.35,200.1 C851.42,227.52 775.0519,282.7405 736.1019,310.9005" fill="none" id="UC_CHAT_MIA-to-UC_TRACK_GRAD" style="stroke:#181818;stroke-width:1;"/><polygon fill="#181818" points="732.05,313.83,741.6871,311.7985,736.1019,310.9005,736.9999,305.3154,732.05,313.83" style="stroke:#181818;stroke-width:1;stroke-linejoin:miter;stroke-miterlimit:10;"/></g><!--link UC_CHAT_MIA to UC_MEMORY--><g class="link" data-entity-1="ent0010" data-entity-2="ent0015" data-link-type="dependency" data-source-line="63" id="lnk27"><path d="M842.86,188.61 C745.38,195.29 560.15,214.34 412,267.14 C382.19,277.76 355.3397,293.6756 334.0497,307.8756" fill="none" id="UC_CHAT_MIA-to-UC_MEMORY" style="stroke:#181818;stroke-width:1;"/><polygon fill="#181818" points="329.89,310.65,339.5969,308.9838,334.0497,307.8756,335.1578,302.3284,329.89,310.65" style="stroke:#181818;stroke-width:1;stroke-linejoin:miter;stroke-miterlimit:10;"/></g><!--link UC_CHECK_GRADES to UC_TRANSCRIPT--><g class="link" data-entity-1="ent0004" data-entity-2="ent0006" data-link-type="extension" data-source-line="65" id="lnk28"><path d="M1533.57,200.51 C1617.75,228.24 1777.264,280.7774 1861.824,308.6374" fill="none" id="UC_CHECK_GRADES-to-UC_TRANSCRIPT" style="stroke:#181818;stroke-width:1;stroke-dasharray:7,7;"/><polygon fill="none" points="1878.92,314.27,1863.7015,302.9387,1859.9464,314.336,1878.92,314.27" style="stroke:#181818;stroke-width:1;stroke-linejoin:miter;stroke-miterlimit:10;"/><text fill="#000000" font-family="sans-serif" font-size="13" lengthAdjust="spacing" textLength="60.0806" x="1707.5" y="255.7084">uses data</text></g><!--link UC_RECOMMEND to UC_VIEW_COURSES--><g class="link" data-entity-1="ent0013" data-entity-2="ent0003" data-link-type="extension" data-source-line="66" id="lnk29"><path d="M538.04,311.57 C557.98,296.88 588.23,277.09 618,267.14 C676.77,247.49 1111.97,222.86 1173,212.14 C1190.02,209.15 1190.9014,209.3794 1207.4414,205.1094" fill="none" id="UC_RECOMMEND-to-UC_VIEW_COURSES" style="stroke:#181818;stroke-width:1;stroke-dasharray:7,7;"/><polygon fill="none" points="1224.87,200.61,1205.9416,199.2999,1208.9412,210.9189,1224.87,200.61" style="stroke:#181818;stroke-width:1;stroke-linejoin:miter;stroke-miterlimit:10;"/><text fill="#000000" font-family="sans-serif" font-size="13" lengthAdjust="spacing" textLength="65.7427" x="822.17" y="255.7084">references</text></g><!--link UC_TRACK_GRAD to UC_CHECK_GRADES--><g class="link" data-entity-1="ent0014" data-entity-2="ent0004" data-link-type="extension" data-source-line="67" id="lnk30"><path d="M732.56,313.91 C754.91,299.08 790.67,277.7 825,267.14 C1064.04,193.64 1138.87,256.46 1385,212.14 C1402.22,209.04 1403.4082,209.2139 1419.9182,204.7339" fill="none" id="UC_TRACK_GRAD-to-UC_CHECK_GRADES" style="stroke:#181818;stroke-width:1;stroke-dasharray:7,7;"/><polygon fill="none" points="1437.29,200.02,1418.3469,198.9432,1421.4895,210.5245,1437.29,200.02" style="stroke:#181818;stroke-width:1;stroke-linejoin:miter;stroke-miterlimit:10;"/><text fill="#000000" font-family="sans-serif" font-size="13" lengthAdjust="spacing" textLength="60.0806" x="917.66" y="255.7084">uses data</text></g><!--link UC_CHAT_MIA to GMN31--><g class="link" data-entity-1="ent0010" data-entity-2="ent0032" data-link-type="association" data-source-line="70" id="lnk33"><path d="M923.91,167.88 C942.26,147.78 976.7,114.64 1014.5,101.49 C1074.42,80.65 2095.21,85.1 2156.5,101.49 C2195.94,112.04 2235.78,136.33 2263.44,155.86" fill="none" id="UC_CHAT_MIA-GMN31" style="stroke:#181818;stroke-width:1;stroke-dasharray:7,7;"/></g><!--link UC_TRACK_PAYMENTS to GMN34--><g class="link" data-entity-1="ent0009" data-entity-2="ent0035" data-link-type="association" data-source-line="76" id="lnk36"><path d="M1099.08,167.88 C1117.64,147.77 1152.45,114.63 1190.5,101.49 C1254.36,79.45 2341.72,82.33 2406.5,101.49 C2442.42,112.12 2477.72,136.4 2502.04,155.91" fill="none" id="UC_TRACK_PAYMENTS-GMN34" style="stroke:#181818;stroke-width:1;stroke-dasharray:7,7;"/></g><?plantuml-src dLJHRjem57tFLznIQMzbQDNGjeT9hZ4iMbDe4bhr2Rc92rOJkxETChJjt-S44kA4QjACUCWzzZttddFjivGzSS40uNWUhl3yUXx2EPfCFf6nTtR0eeSe9a4Dal5qD9qsu38Y64MaHYSZycdweK6HNmFOPiIVFKy_S_525Ss19aOg-EM1NLSqULuhMOWKoyn6M-NiSQbIflRO-MXqUJaUL_6f5AQ9Zhm_xVoA9OQATSRUu6YtzTyaXMO9rMzHEEASuXYFCVudXv3cBOBpwSVorqyzhbOtzMMroknxyGUHAL8cp02eXYXUUjvHj44mz8S8efqsB1yS-Ejs1tUSRO489RECfO1beJJJLPebNjtvvDxsl0mZ4hd7y8Obpp1JD6KQti5iWUep-1l1trUp44swPoegP0mJAHK9SqXG79ERYRj_8hSYapI5M56X4yLVJ7qc3j5DX4D_4Rj7ek8nvmQGrdmjSYj8qqgql0hyU8MYo9_TdAWhBhZXKbXZibvnyTAF_Nddb2tAAh2WEuV65cQxNw27WDp4FSseWIqt6wWSEGg6ubNWezBDdcl81xIkZEtuXeJUCWMt1TDbtKq1LfTx4gvktTqXIsHk2-qv718y3uAUzFlcIdiBMgPtsolDxURFMVvewraeziGKimes5049vk53sPqTJBYu-DgRh5RScPxk_iEGjCAjEMX5NQ-xMMettJHjrvnw3kPuhOyQRBG-WHs5FG6sP3o17WJpEdB0SFYxqpHyAItGa593lJPfixUjizrzTCTpocZsEuJjx5xrU2c-tXYGJuuq0EHdaXMQlp8m4WvF4IoaCZIpw4BQIRMFo-FEJfJyyNx6SYuuN5y75Wme5yR-DIHIl3Abgtc33TVsNTjvvSYMp2VuUrUjkiSsasNDoai9EjcmjCXOMSF-de85JQ5je7fJxEDvakml?></g></svg>